<svg xmlns="http://www.w3.org/2000/svg" width="44" height="44" viewBox="0 0 44 44">
  <g id="icon_위시리스트" transform="translate(-887 -3919)">
    <g id="Shape" transform="translate(899.1 3932.2)" fill="none" stroke-miterlimit="10">
      <path d="M18.357,1.561a4.742,4.742,0,0,0-7.033,0L9.9,3.033,8.5,1.561a4.742,4.742,0,0,0-7.033,0,5.52,5.52,0,0,0,0,7.491l8.435,8,8.457-8A5.584,5.584,0,0,0,18.357,1.561Z" stroke="none"/>
      <path d="M 4.970660209655762 0 C 3.696998596191406 0 2.427093505859375 0.5202369689941406 1.465272903442383 1.560711860656738 C -0.4884262084960938 3.64165210723877 -0.4884262084960938 7.003182411193848 1.465272903442383 9.052112579345703 L 9.900003433227539 17.05000305175781 L 18.35726356506348 9.052112579345703 C 20.28091239929199 7.003182411193848 20.28091239929199 3.64165210723877 18.35726356506348 1.560711860656738 C 16.40356254577637 -0.5202388763427734 13.24759292602539 -0.5202407836914062 11.32394313812256 1.560711860656738 L 9.900003433227539 3.033382415771484 L 8.498593330383301 1.560711860656738 C 7.521742820739746 0.5202369689941406 6.244322776794434 0 4.970660209655762 0 M 4.970663070678711 -2.999998092651367 C 6.786335945129395 -2.999998092651367 8.505308151245117 -2.375129699707031 9.907814025878906 -1.221803665161133 C 11.29957485198975 -2.375171661376953 13.01258087158203 -2.999998092651367 14.82933330535889 -2.999998092651367 C 16.99676322937012 -2.999998092651367 19.02641296386719 -2.109548568725586 20.54440307617188 -0.4926776885986328 L 20.56020355224609 -0.4757175445556641 C 22.00456237792969 1.086731910705566 22.80000305175781 3.144461631774902 22.80000305175781 5.318411827087402 C 22.80000305175781 7.501002311706543 21.99894332885742 9.556232452392578 20.54439353942871 11.10551261901855 L 20.48335266113281 11.1705322265625 L 9.897253036499023 21.18163299560547 L -0.6537570953369141 11.17706203460693 L -0.7059078216552734 11.12237167358398 C -2.185276031494141 9.570892333984375 -3.000007629394531 7.509672164916992 -3.000007629394531 5.318411827087402 C -3.000007629394531 3.139828681945801 -2.19395637512207 1.079682350158691 -0.7299690246582031 -0.4840354919433594 C 0.7740020751953125 -2.106576919555664 2.798051834106445 -2.999998092651367 4.970663070678711 -2.999998092651367 Z" stroke="none" fill="#222"/>
    </g>
    <rect id="사각형_179" data-name="사각형 179" width="44" height="44" transform="translate(887 3919)" fill="none"/>
  </g>
</svg>
