<svg xmlns="http://www.w3.org/2000/svg" width="10.717" height="20.146" viewBox="0 0 10.717 20.146">
  <g id="icon_카카오톡" transform="translate(-1488.846 -318)">
    <path id="패스_180" data-name="패스 180" d="M605.836,129.147h-8.621a1.045,1.045,0,0,0-1.048,1.042v8.55a1.045,1.045,0,0,0,1.048,1.042h3.975a6.435,6.435,0,0,1-1.067,3.106,12.488,12.488,0,0,1-2.181,2.339.57.57,0,0,0-.2.419.6.6,0,0,0,.147.352l2.772,3.108a.685.685,0,0,0,.245.168.44.44,0,0,0,.367-.042,13.927,13.927,0,0,0,5.613-10.825c0-.014,0-8.218,0-8.218a1.045,1.045,0,0,0-1.049-1.042" transform="translate(892.679 188.853)" fill="#222"/>
  </g>
</svg>
