<svg xmlns="http://www.w3.org/2000/svg" width="74" height="13" viewBox="0 0 74 13">
  <g id="logo" transform="translate(-365.646 -684.402)">
    <path id="패스_149" data-name="패스 149" d="M375.534,684.4v6.558l-4.75-6.558h-5.138v13h5.12v-6.56l4.75,6.56h5.137v-13Z" fill="#1eaa39"/>
    <path id="패스_150" data-name="패스 150" d="M435.578,692.536a3.646,3.646,0,0,0,2.99-3.711c0-3.35-2.81-4.424-6.514-4.424h-6.395v13h5.119V693.34l3.056,4.061h5.882Zm-2.516-2.649a2.463,2.463,0,0,1-1.349.343h-1.1v-2.558h1.079a2.462,2.462,0,0,1,1.39.35,1.148,1.148,0,0,1,.416.952A1.067,1.067,0,0,1,433.062,689.887Z" transform="translate(-0.07)" fill="#1eaa39"/>
    <path id="패스_151" data-name="패스 151" d="M413.184,684.4h10.379v3.383h-5.308v1.533h4.888v3.2h-4.888v1.5h5.469V697.4h-10.54Z" transform="translate(-0.052)" fill="#1eaa39"/>
    <path id="패스_152" data-name="패스 152" d="M392.971,684.4h-5.836l-5.385,13h5.694l.5-1.7h4.227l.5,1.7h5.694Zm-4.193,8.3,1.207-4.289h.14l1.2,4.289Z" transform="translate(-0.02)" fill="#1eaa39"/>
    <path id="패스_153" data-name="패스 153" d="M406.507,684.4l-2.524,7.838h-.142l-2.52-7.838h-5.586l5.76,13h4.833l5.758-13Z" transform="translate(-0.036)" fill="#1eaa39"/>
  </g>
</svg>
