<svg xmlns="http://www.w3.org/2000/svg" width="23.563" height="21.745" viewBox="0 0 23.563 21.745">
  <path id="패스_202" data-name="패스 202" d="M-687.647,1598.563a7.343,7.343,0,0,0-.3-1.742,8.5,8.5,0,0,0-2.073-3.481,11.213,11.213,0,0,0-3.337-2.367,14,14,0,0,0-5.527-1.316,14.72,14.72,0,0,0-2.382.105,14.213,14.213,0,0,0-2.354.494,12.411,12.411,0,0,0-4.068,2.064,9.535,9.535,0,0,0-2.432,2.724,7.551,7.551,0,0,0-1.061,4.471,7.356,7.356,0,0,0,.318,1.656,8.43,8.43,0,0,0,1.8,3.106,10.947,10.947,0,0,0,2.982,2.327c.125.068.252.133.392.207-.016.064-.029.12-.045.175l-1.087,3.844a2.308,2.308,0,0,0-.055.225.261.261,0,0,0,.307.335.69.69,0,0,0,.2-.058,1.742,1.742,0,0,0,.225-.119c.309-.191.622-.375.922-.579q1.816-1.235,3.623-2.482a.281.281,0,0,1,.216-.05,13.706,13.706,0,0,0,1.709.13,14.994,14.994,0,0,0,2.081-.11,14.078,14.078,0,0,0,2.043-.4,12.58,12.58,0,0,0,4.226-2.027,9.675,9.675,0,0,0,2.493-2.669A7.6,7.6,0,0,0-687.647,1598.563Z" transform="translate(711.2 -1589.647)" fill="#222"/>
</svg>
