<svg id="그룹_1659" data-name="그룹 1659" xmlns="http://www.w3.org/2000/svg" width="27.249" height="12.443" viewBox="0 0 27.249 12.443">
  <path id="패스_376" data-name="패스 376" d="M428.547,387.9v-5.578a1.342,1.342,0,0,0-1.017-1.456v-2.232s2.954.18,3.126,3.759V387.9Z" transform="translate(-419.965 -378.629)" fill="#222"/>
  <path id="패스_377" data-name="패스 377" d="M451.685,397.678a3.073,3.073,0,0,1,.269-1.272,3.434,3.434,0,0,1,.791-1.094,3.636,3.636,0,0,1,1.155-.72,3.717,3.717,0,0,1,1.356-.25,3.819,3.819,0,0,1,1.378.25,3.54,3.54,0,0,1,1.154.72,3.274,3.274,0,0,1,.774,1.081,3.241,3.241,0,0,1,0,2.568,3.264,3.264,0,0,1-.774,1.08,3.529,3.529,0,0,1-1.154.72,3.823,3.823,0,0,1-1.378.251,3.721,3.721,0,0,1-1.356-.251,3.623,3.623,0,0,1-1.155-.72,3.427,3.427,0,0,1-.791-1.093A3.069,3.069,0,0,1,451.685,397.678Zm2.143-.013a1.419,1.419,0,0,0,.419,1.033,1.359,1.359,0,0,0,1.007.427,1.459,1.459,0,0,0,0-2.919,1.36,1.36,0,0,0-1.007.427A1.418,1.418,0,0,0,453.828,397.665Z" transform="translate(-439.602 -391.404)" fill="#222"/>
  <path id="패스_378" data-name="패스 378" d="M393.346,383.388a2.734,2.734,0,0,0-1.995-.983,3.4,3.4,0,0,0-2.177.668h-.026v-3.445h-2.066v9.013h2.066V388.2h.026a3.368,3.368,0,0,0,4.162-.288,2.958,2.958,0,0,0,.815-2.211A3.609,3.609,0,0,0,393.346,383.388Zm-1.771,3.36a1.4,1.4,0,0,1-1.024.427,1.36,1.36,0,0,1-1.007-.427,1.482,1.482,0,0,1,0-2.066,1.361,1.361,0,0,1,1.007-.427,1.46,1.46,0,0,1,1.024,2.492Z" transform="translate(-387.081 -379.441)" fill="#222"/>
  <path id="패스_379" data-name="패스 379" d="M500.365,393.991v.493h-.027a2.433,2.433,0,0,0-1.82-.651,2.85,2.85,0,0,0-2.251.948,3.883,3.883,0,0,0-.832,2.618,3.487,3.487,0,0,0,.748,2.346,2.663,2.663,0,0,0,2.082.9,2.335,2.335,0,0,0,2.074-.887h.027v.42a1.751,1.751,0,0,1-2,1.559v1.636a3.583,3.583,0,0,0,3.042-.709,4.1,4.1,0,0,0,1.006-3.219v-5.451Zm-.4,4.3a1.4,1.4,0,0,1-1.024.427,1.36,1.36,0,0,1-1.007-.427,1.482,1.482,0,0,1,0-2.066,1.36,1.36,0,0,1,1.007-.427,1.461,1.461,0,0,1,1.024,2.492Z" transform="translate(-475.17 -390.989)" fill="#222"/>
</svg>
