<svg xmlns="http://www.w3.org/2000/svg" width="24.114" height="20.095" viewBox="0 0 24.114 20.095">
  <g id="icon_트위터" transform="translate(-1559.886 -318)">
    <path id="패스_181" data-name="패스 181" d="M229.295,140.5c9.1,0,14.076-7.73,14.076-14.433,0-.22,0-.438-.014-.656a10.211,10.211,0,0,0,2.468-2.626,9.691,9.691,0,0,1-2.841.8,5.071,5.071,0,0,0,2.175-2.806,9.765,9.765,0,0,1-3.141,1.231,4.886,4.886,0,0,0-3.611-1.6,5.012,5.012,0,0,0-4.948,5.072,5.18,5.18,0,0,0,.129,1.157,13.933,13.933,0,0,1-10.2-5.3,5.163,5.163,0,0,0,1.532,6.772,4.821,4.821,0,0,1-2.241-.635c0,.021,0,.042,0,.065a5.045,5.045,0,0,0,3.969,4.973,4.819,4.819,0,0,1-2.234.087,4.971,4.971,0,0,0,4.622,3.523,9.8,9.8,0,0,1-7.325,2.1,13.755,13.755,0,0,0,7.584,2.279" transform="translate(1338.175 197.596)" fill="#222"/>
  </g>
</svg>
